<svg xmlns="http://www.w3.org/2000/svg" width="60" height="60" fill="none"><path d="M22.268 40.5v-3.324l7.767-7.19a29.35 29.35 0 001.662-1.727c.454-.511.799-1.012 1.033-1.502a3.725 3.725 0 00.352-1.609c0-.639-.146-1.19-.437-1.65a2.867 2.867 0 00-1.193-1.077c-.505-.255-1.076-.383-1.716-.383-.667 0-1.25.135-1.747.404a2.79 2.79 0 00-1.15 1.162c-.27.504-.405 1.104-.405 1.8h-4.379c0-1.427.324-2.667.97-3.718.646-1.051 1.552-1.864 2.716-2.44 1.165-.575 2.508-.862 4.027-.862 1.563 0 2.923.276 4.08.83 1.166.547 2.071 1.307 2.717 2.28.647.973.97 2.088.97 3.346a6.42 6.42 0 01-.49 2.44c-.32.802-.892 1.693-1.715 2.673-.824.973-1.986 2.141-3.484 3.505L28.66 36.58v.149h9.162V40.5H22.268z" fill="#2961F6"/></svg>