<svg width="512" height="512" fill="none" xmlns="http://www.w3.org/2000/svg"><path d="M256 11C120.69 11 11 120.69 11 256s109.69 245 245 245 245-109.69 245-245S391.31 11 256 11zm113.561 166.62c-3.686 38.74-19.64 132.752-27.76 176.143-3.434 18.359-10.197 24.516-16.743 25.117-14.225 1.31-25.031-9.402-38.811-18.435-21.563-14.135-33.745-22.934-54.677-36.727-24.189-15.94-8.508-24.698 5.278-39.022 3.607-3.747 66.295-60.766 67.508-65.939.151-.647.296-3.062-1.14-4.331-1.437-1.268-3.547-.839-5.073-.494-2.162.491-36.61 23.26-103.343 68.306-9.777 6.713-18.633 9.985-26.568 9.814-8.748-.189-25.575-4.946-38.085-9.013-15.343-4.987-27.538-7.624-26.476-16.094.553-4.413 6.629-8.924 18.227-13.534 71.423-31.118 119.049-51.633 142.879-61.547 68.038-28.3 82.176-33.216 91.391-33.38 2.028-.034 6.559.468 9.494 2.85a10.329 10.329 0 013.488 6.635c.497 3.191.635 6.429.411 9.651z" fill="#F7F7F7"/><path d="M369.561 177.62c-3.686 38.74-19.64 132.752-27.76 176.143-3.434 18.359-10.197 24.516-16.743 25.117-14.225 1.31-25.031-9.402-38.811-18.435-21.563-14.135-33.745-22.934-54.677-36.727-24.189-15.94-8.508-24.698 5.278-39.022 3.607-3.747 66.295-60.766 67.508-65.939.151-.647.296-3.062-1.14-4.331-1.437-1.268-3.547-.839-5.073-.494-2.162.491-36.61 23.26-103.343 68.306-9.777 6.713-18.633 9.985-26.568 9.814-8.748-.189-25.575-4.946-38.085-9.013-15.343-4.987-27.538-7.624-26.476-16.094.553-4.413 6.629-8.924 18.227-13.534 71.423-31.118 119.049-51.633 142.879-61.547 68.038-28.3 82.176-33.216 91.391-33.38 2.028-.034 6.559.468 9.494 2.85a10.329 10.329 0 013.488 6.635c.497 3.191.635 6.429.411 9.651z" fill="#1B1B28"/></svg>