<svg width="512" height="512" fill="none" xmlns="http://www.w3.org/2000/svg"><path d="M256 11C120.69 11 11 120.69 11 256c0 135.309 109.69 245 245 245 135.309 0 245-109.69 245-245S391.309 11 256 11z" fill="#2961F6"/><path d="M106 161h51.343c1.686 87.107 39.537 124.003 69.519 131.611V161h48.345v75.125c29.606-3.233 60.712-37.467 71.205-75.125h48.345a146.082 146.082 0 01-23.156 54.318c-11.316 16.297-25.824 30.049-42.616 40.397 18.749 9.447 35.309 22.826 48.585 39.251C390.846 311.392 400.536 330.491 406 351h-53.217c-4.904-17.815-14.883-33.763-28.685-45.842-13.8-12.079-30.809-19.752-48.891-22.056V351h-5.81C166.899 351 108.436 279.679 106 161z" fill="#fff"/></svg>