<svg width="490" height="490" fill="none" xmlns="http://www.w3.org/2000/svg"><path d="M245 0C109.69 0 0 109.69 0 245c0 135.309 109.69 245 245 245 135.309 0 245-109.69 245-245S380.309 0 245 0z" fill="#F7F7F7"/><path d="M95 150h51.343c1.686 87.107 39.537 124.003 69.519 131.611V150h48.345v75.125c29.606-3.233 60.712-37.467 71.205-75.125h48.345a146.082 146.082 0 01-23.156 54.318c-11.316 16.297-25.824 30.049-42.616 40.397 18.749 9.447 35.309 22.826 48.585 39.251C379.846 300.392 389.536 319.491 395 340h-53.217c-4.904-17.815-14.883-33.763-28.685-45.842-13.8-12.079-30.809-19.752-48.891-22.056V340h-5.81C155.899 340 97.436 268.679 95 150z" fill="#1B1B28"/></svg>