<?xml version="1.0" encoding="UTF-8"?> <svg xmlns="http://www.w3.org/2000/svg" width="90" height="90" viewBox="0 0 90 90" fill="none"> <rect width="90" height="90" fill="white"></rect> <path d="M44.9987 47.2217L29.627 57.47C29.5015 57.5535 29.3557 57.6014 29.2052 57.6086C29.0546 57.6158 28.9049 57.5821 28.772 57.5109C28.6391 57.4398 28.528 57.3339 28.4506 57.2046C28.3731 57.0753 28.3321 56.9274 28.332 56.7767V33.2233C28.3321 33.0726 28.3731 32.9247 28.4506 32.7954C28.528 32.6661 28.6391 32.5603 28.772 32.4891C28.9049 32.418 29.0546 32.3842 29.2052 32.3914C29.3557 32.3986 29.5015 32.4465 29.627 32.53L44.9987 42.7783V33.2233C44.9988 33.0726 45.0397 32.9247 45.1172 32.7954C45.1947 32.6661 45.3058 32.5603 45.4387 32.4891C45.5716 32.418 45.7213 32.3842 45.8718 32.3914C46.0224 32.3986 46.1682 32.4465 46.2937 32.53L63.9587 44.3067C64.0728 44.3828 64.1664 44.4859 64.2311 44.6068C64.2958 44.7278 64.3297 44.8628 64.3297 45C64.3297 45.1372 64.2958 45.2722 64.2311 45.3932C64.1664 45.5141 64.0728 45.6172 63.9587 45.6933L46.2937 57.47C46.1682 57.5535 46.0224 57.6014 45.8718 57.6086C45.7213 57.6158 45.5716 57.5821 45.4387 57.5109C45.3058 57.4398 45.1947 57.3339 45.1172 57.2046C45.0397 57.0753 44.9988 56.9274 44.9987 56.7767V47.2217V47.2217Z" fill="#2961F6"></path> </svg> 