<?xml version="1.0" encoding="UTF-8"?> <svg xmlns="http://www.w3.org/2000/svg" width="60" height="60" viewBox="0 0 60 60" fill="none"> <path d="M29.8331 40.7983C28.2422 40.7983 26.8253 40.5249 25.5824 39.978C24.3466 39.424 23.37 38.6641 22.6527 37.6982C21.9425 36.7251 21.5767 35.603 21.5554 34.3317H26.2003C26.2287 34.8643 26.4027 35.3331 26.7223 35.7379C27.049 36.1357 27.4822 36.4446 28.022 36.6648C28.5618 36.8849 29.169 36.995 29.8438 36.995C30.5469 36.995 31.1683 36.8707 31.7081 36.6222C32.2479 36.3736 32.6705 36.0291 32.9759 35.5888C33.2813 35.1484 33.4339 34.6406 33.4339 34.0653C33.4339 33.483 33.2706 32.968 32.9439 32.5206C32.6243 32.0661 32.1626 31.7109 31.5589 31.4553C30.9624 31.1996 30.2521 31.0717 29.4283 31.0717H27.3935V27.6839H29.4283C30.1243 27.6839 30.7386 27.5632 31.2713 27.3217C31.8111 27.0803 32.2301 26.7464 32.5284 26.3203C32.8267 25.8871 32.9759 25.3828 32.9759 24.8075C32.9759 24.2607 32.8445 23.7812 32.5817 23.3693C32.326 22.9503 31.9638 22.6236 31.495 22.3892C31.0334 22.1548 30.4936 22.0376 29.8757 22.0376C29.2507 22.0376 28.679 22.1513 28.1605 22.3786C27.642 22.5987 27.2266 22.9148 26.9141 23.3267C26.6016 23.7386 26.4347 24.2216 26.4134 24.7756H21.9922C22.0135 23.5185 22.3722 22.4105 23.0682 21.4517C23.7642 20.4929 24.7017 19.7436 25.8807 19.2038C27.0668 18.657 28.4055 18.3835 29.897 18.3835C31.4027 18.3835 32.7202 18.657 33.8494 19.2038C34.9787 19.7507 35.8558 20.4893 36.4808 21.4197C37.1129 22.343 37.4254 23.38 37.4183 24.5305C37.4254 25.7521 37.0455 26.7713 36.2784 27.5881C35.5185 28.4048 34.5277 28.9233 33.3061 29.1435V29.3139C34.9112 29.5199 36.1328 30.0774 36.9709 30.9865C37.8161 31.8885 38.2351 33.0178 38.228 34.3743C38.2351 35.6172 37.8764 36.7216 37.152 37.6875C36.4347 38.6534 35.4439 39.4134 34.1797 39.9673C32.9155 40.5213 31.4666 40.7983 29.8331 40.7983Z" fill="#2961F6"></path> </svg> 