<?xml version="1.0" encoding="UTF-8"?> <svg xmlns="http://www.w3.org/2000/svg" width="60" height="60" viewBox="0 0 60 60" fill="none"> <path d="M22.2685 40.5V37.1761L30.0348 29.9851C30.6953 29.3459 31.2493 28.7706 31.6967 28.2592C32.1513 27.7479 32.4957 27.2472 32.7301 26.7571C32.9645 26.2599 33.0817 25.7237 33.0817 25.1484C33.0817 24.5092 32.9361 23.9588 32.6449 23.4972C32.3537 23.0284 31.956 22.6697 31.4517 22.4212C30.9474 22.1655 30.3757 22.0376 29.7365 22.0376C29.0689 22.0376 28.4865 22.1726 27.9893 22.4425C27.4922 22.7124 27.1087 23.0994 26.8388 23.6037C26.5689 24.108 26.4339 24.7081 26.4339 25.4041H22.0554C22.0554 23.9766 22.3786 22.7372 23.0249 21.6861C23.6712 20.6349 24.5767 19.8217 25.7415 19.2464C26.9063 18.6712 28.2486 18.3835 29.7685 18.3835C31.331 18.3835 32.6911 18.6605 33.8487 19.2145C35.0135 19.7614 35.919 20.5213 36.5653 21.4943C37.2116 22.4673 37.5348 23.5824 37.5348 24.8395C37.5348 25.6634 37.3714 26.4766 37.0447 27.2791C36.7251 28.0817 36.1534 28.973 35.3295 29.9531C34.5057 30.9261 33.3445 32.0945 31.8459 33.4581L28.6605 36.5795V36.7287H37.8224V40.5H22.2685Z" fill="#2961F6"></path> </svg> 