<svg width="512" height="512" viewBox="0 0 512 512" fill="none" xmlns="http://www.w3.org/2000/svg">
<path d="M256 11C120.69 11 11 120.69 11 256C11 391.31 120.69 501 256 501C391.31 501 501 391.31 501 256C501 120.69 391.31 11 256 11ZM369.561 177.62C365.875 216.36 349.921 310.372 341.801 353.763C338.367 372.122 331.604 378.279 325.058 378.88C310.833 380.19 300.027 369.478 286.247 360.445C264.684 346.31 252.502 337.511 231.57 323.718C207.381 307.778 223.062 299.02 236.848 284.696C240.455 280.949 303.143 223.93 304.356 218.757C304.507 218.11 304.652 215.695 303.216 214.426C301.779 213.158 299.669 213.587 298.143 213.932C295.981 214.423 261.533 237.192 194.8 282.238C185.023 288.951 176.167 292.223 168.232 292.052C159.484 291.863 142.657 287.106 130.147 283.039C114.804 278.052 102.609 275.415 103.671 266.945C104.224 262.532 110.3 258.021 121.898 253.411C193.321 222.293 240.947 201.778 264.777 191.864C332.815 163.564 346.953 158.648 356.168 158.484C358.196 158.45 362.727 158.952 365.662 161.334C367.615 163.031 368.859 165.399 369.15 167.969C369.647 171.16 369.785 174.398 369.561 177.62Z" fill="#F7F7F7"/>
<path d="M369.561 177.62C365.875 216.36 349.921 310.372 341.801 353.763C338.367 372.122 331.604 378.279 325.058 378.88C310.833 380.19 300.027 369.478 286.247 360.445C264.684 346.31 252.502 337.511 231.57 323.718C207.381 307.778 223.062 299.02 236.848 284.696C240.455 280.949 303.143 223.93 304.356 218.757C304.507 218.11 304.652 215.695 303.216 214.426C301.779 213.158 299.669 213.587 298.143 213.932C295.981 214.423 261.533 237.192 194.8 282.238C185.023 288.951 176.167 292.223 168.232 292.052C159.484 291.863 142.657 287.106 130.147 283.039C114.804 278.052 102.609 275.415 103.671 266.945C104.224 262.532 110.3 258.021 121.898 253.411C193.321 222.293 240.947 201.778 264.777 191.864C332.815 163.564 346.953 158.648 356.168 158.484C358.196 158.45 362.727 158.952 365.662 161.334C367.615 163.031 368.859 165.399 369.15 167.969C369.647 171.16 369.785 174.398 369.561 177.62Z" fill="#1B1B28"/>
</svg>
