<svg xmlns="http://www.w3.org/2000/svg" width="142" height="28" fill="none"><circle fill="url(#paint0_radial)" cx="14" cy="14" r="14"/><path d="M42.728 22V8.656H38.12V5.2h13.104v3.456h-4.632V22h-3.864zm19.012-6.384c0 .48-.032 1.016-.096 1.608H53.1c.032.752.288 1.336.768 1.752.48.416 1.128.624 1.944.624 1.12 0 1.84-.36 2.16-1.08h3.6c-.175 1.136-.8 2.064-1.872 2.784-1.056.704-2.352 1.056-3.888 1.056-1.968 0-3.52-.544-4.655-1.632-1.136-1.088-1.704-2.592-1.704-4.512 0-1.888.567-3.376 1.703-4.464 1.136-1.104 2.648-1.656 4.537-1.656 1.791 0 3.248.512 4.367 1.536 1.12 1.024 1.68 2.352 1.68 3.984zm-8.64-.672h5.017c-.017-.768-.232-1.36-.648-1.776-.416-.416-1.017-.624-1.8-.624-.784 0-1.408.224-1.872.672-.448.432-.68 1.008-.697 1.728zm14.67 7.368c-1.68 0-3.008-.568-3.984-1.704-.976-1.136-1.464-2.6-1.464-4.392 0-1.76.504-3.216 1.512-4.368 1.008-1.152 2.336-1.728 3.984-1.728.816 0 1.544.176 2.184.528.64.352 1.12.832 1.44 1.44v-1.656h3.648V22h-3.648v-1.632c-.32.576-.816 1.048-1.488 1.416a4.545 4.545 0 01-2.184.528zm1.056-3.048c.88 0 1.56-.288 2.04-.864.48-.576.72-1.304.72-2.184 0-.864-.24-1.584-.72-2.16-.48-.576-1.16-.864-2.04-.864-.832 0-1.504.28-2.016.84-.496.56-.744 1.288-.744 2.184 0 .896.248 1.632.744 2.208.512.56 1.184.84 2.016.84zM77.179 22V10.432h3.672v1.68a3.187 3.187 0 011.248-1.44c.592-.368 1.28-.552 2.064-.552 1.824 0 3.032.712 3.624 2.136.32-.64.808-1.152 1.464-1.536.656-.4 1.4-.6 2.232-.6 2.736 0 4.104 1.568 4.104 4.704V22H91.89v-6.504c0-1.52-.576-2.28-1.728-2.28-1.296 0-1.944.944-1.944 2.832V22h-3.696v-6.528c0-1.504-.568-2.256-1.704-2.256-.64 0-1.128.216-1.464.648-.336.416-.504 1.144-.504 2.184V22h-3.672zm20.274 0V5.2h3.672V22h-3.672zm15.919-1.368c-1.152 1.152-2.704 1.728-4.656 1.728-1.952 0-3.512-.576-4.68-1.728-1.168-1.152-1.752-2.624-1.752-4.416 0-1.792.584-3.256 1.752-4.392 1.168-1.152 2.728-1.728 4.68-1.728 1.952 0 3.504.576 4.656 1.728 1.168 1.136 1.752 2.6 1.752 4.392 0 1.792-.584 3.264-1.752 4.416zm-4.656-1.392c.848 0 1.52-.28 2.016-.84.496-.56.744-1.288.744-2.184 0-.896-.248-1.624-.744-2.184s-1.168-.84-2.016-.84c-.864 0-1.544.28-2.04.84-.48.56-.72 1.288-.72 2.184 0 .896.24 1.624.72 2.184.496.56 1.176.84 2.04.84zm16.121-8.808h3.672v10.776c0 2.24-.744 3.88-2.232 4.92-.976.688-2.352 1.032-4.128 1.032-1.744 0-3.136-.312-4.176-.936a4.757 4.757 0 01-1.464-1.416c-.384-.576-.584-1.176-.6-1.8h3.744c.176.976.992 1.464 2.448 1.464 1.824 0 2.736-.936 2.736-2.808v-1.536c-.288.56-.776 1.016-1.464 1.368a4.764 4.764 0 01-2.16.504c-1.68 0-3.016-.544-4.008-1.632-.992-1.104-1.488-2.528-1.488-4.272 0-1.728.512-3.152 1.536-4.272 1.024-1.136 2.36-1.704 4.008-1.704.8 0 1.52.184 2.16.552.656.352 1.128.824 1.416 1.416v-1.656zm-2.616 8.736c.848 0 1.52-.288 2.016-.864.512-.576.768-1.296.768-2.16 0-.864-.256-1.584-.768-2.16-.496-.576-1.168-.864-2.016-.864-.816 0-1.48.288-1.992.864-.496.56-.744 1.28-.744 2.16 0 .88.248 1.608.744 2.184.512.56 1.176.84 1.992.84zm12.984 3.192c-1.664 0-2.992-.36-3.984-1.08-.992-.72-1.488-1.64-1.488-2.76h3.648c0 .4.176.728.528.984.352.256.808.384 1.368.384.4 0 .72-.096.96-.288a.936.936 0 00.384-.792c0-.528-.28-.856-.84-.984l-2.832-.72c-.944-.24-1.664-.648-2.16-1.224-.496-.576-.744-1.28-.744-2.112 0-1.088.448-1.968 1.344-2.64.896-.688 2.096-1.032 3.6-1.032 1.664 0 2.936.32 3.816.96.896.64 1.344 1.52 1.344 2.64h-3.624c0-.4-.144-.712-.432-.936-.272-.224-.656-.336-1.152-.336-.4 0-.72.088-.96.264a.823.823 0 00-.36.696c0 .512.328.856.984 1.032l2.736.744c.912.24 1.624.64 2.136 1.2.528.544.792 1.216.792 2.016 0 1.2-.456 2.168-1.368 2.904-.896.72-2.128 1.08-3.696 1.08z" fill="#1B1B28"/><defs><radialGradient id="paint0_radial" cx="0" cy="0" r="1" gradientUnits="userSpaceOnUse" gradientTransform="matrix(-11.99978 29.00008 -29.31083 -12.12836 19 -1)"><stop stop-color="#03B8ED"/><stop offset=".837" stop-color="#2961F6"/></radialGradient><filter id="filter0_b" x="-12" y="-12" width="52" height="52" filterUnits="userSpaceOnUse" color-interpolation-filters="sRGB"><feFlood flood-opacity="0" result="BackgroundImageFix"/><feGaussianBlur in="BackgroundImage" stdDeviation="6"/><feComposite in2="SourceAlpha" operator="in" result="effect1_backgroundBlur"/><feBlend in="SourceGraphic" in2="effect1_backgroundBlur" result="shape"/></filter></defs></svg>