<?xml version="1.0" encoding="UTF-8"?> <svg xmlns="http://www.w3.org/2000/svg" xmlns:xlink="http://www.w3.org/1999/xlink" width="142" height="28" viewBox="0 0 142 28" fill="none"> <circle fill="url(#paint0_radial)" cx="14" cy="14" r="14"></circle> <!-- <g filter="url('#filter0_b')"> --> <!-- <path d="M28 14C28 21.732 21.732 28 14 28C6.26801 28 0 21.732 0 14C0 6.26801 6.26801 0 14 0C21.732 0 28 6.26801 28 14Z" fill="url('#paint0_radial')"/> --> <!-- </g> --> <path d="M42.728 22V8.656H38.12V5.2H51.224V8.656H46.592V22H42.728Z" fill="#1B1B28"></path> <path d="M61.7405 15.616C61.7405 16.096 61.7085 16.632 61.6445 17.224H53.1005C53.1325 17.976 53.3885 18.56 53.8685 18.976C54.3485 19.392 54.9965 19.6 55.8125 19.6C56.9325 19.6 57.6525 19.24 57.9725 18.52H61.5725C61.3965 19.656 60.7725 20.584 59.7005 21.304C58.6445 22.008 57.3485 22.36 55.8125 22.36C53.8445 22.36 52.2925 21.816 51.1565 20.728C50.0205 19.64 49.4525 18.136 49.4525 16.216C49.4525 14.328 50.0205 12.84 51.1565 11.752C52.2925 10.648 53.8045 10.096 55.6925 10.096C57.4845 10.096 58.9405 10.608 60.0605 11.632C61.1805 12.656 61.7405 13.984 61.7405 15.616ZM53.1005 14.944H58.1165C58.1005 14.176 57.8845 13.584 57.4685 13.168C57.0525 12.752 56.4525 12.544 55.6685 12.544C54.8845 12.544 54.2605 12.768 53.7965 13.216C53.3485 13.648 53.1165 14.224 53.1005 14.944Z" fill="#1B1B28"></path> <path d="M67.7703 22.312C66.0903 22.312 64.7623 21.744 63.7863 20.608C62.8103 19.472 62.3223 18.008 62.3223 16.216C62.3223 14.456 62.8263 13 63.8343 11.848C64.8423 10.696 66.1703 10.12 67.8183 10.12C68.6343 10.12 69.3623 10.296 70.0023 10.648C70.6423 11 71.1223 11.48 71.4423 12.088V10.432H75.0903V22H71.4423V20.368C71.1223 20.944 70.6263 21.416 69.9543 21.784C69.2983 22.136 68.5703 22.312 67.7703 22.312ZM68.8263 19.264C69.7063 19.264 70.3863 18.976 70.8663 18.4C71.3463 17.824 71.5863 17.096 71.5863 16.216C71.5863 15.352 71.3463 14.632 70.8663 14.056C70.3863 13.48 69.7063 13.192 68.8263 13.192C67.9943 13.192 67.3223 13.472 66.8103 14.032C66.3143 14.592 66.0663 15.32 66.0663 16.216C66.0663 17.112 66.3143 17.848 66.8103 18.424C67.3223 18.984 67.9943 19.264 68.8263 19.264Z" fill="#1B1B28"></path> <path d="M77.1789 22V10.432H80.8509V12.112C81.1069 11.52 81.5229 11.04 82.0989 10.672C82.6909 10.304 83.3789 10.12 84.1629 10.12C85.9869 10.12 87.1949 10.832 87.7869 12.256C88.1069 11.616 88.5949 11.104 89.2509 10.72C89.9069 10.32 90.6509 10.12 91.4829 10.12C94.2189 10.12 95.5869 11.688 95.5869 14.824V22H91.8909V15.496C91.8909 13.976 91.3149 13.216 90.1629 13.216C88.8669 13.216 88.2189 14.16 88.2189 16.048V22H84.5229V15.472C84.5229 13.968 83.9549 13.216 82.8189 13.216C82.1789 13.216 81.6909 13.432 81.3549 13.864C81.0189 14.28 80.8509 15.008 80.8509 16.048V22H77.1789Z" fill="#1B1B28"></path> <path d="M97.4533 22V5.2H101.125V22H97.4533Z" fill="#1B1B28"></path> <path d="M113.372 20.632C112.22 21.784 110.668 22.36 108.716 22.36C106.764 22.36 105.204 21.784 104.036 20.632C102.868 19.48 102.284 18.008 102.284 16.216C102.284 14.424 102.868 12.96 104.036 11.824C105.204 10.672 106.764 10.096 108.716 10.096C110.668 10.096 112.22 10.672 113.372 11.824C114.54 12.96 115.124 14.424 115.124 16.216C115.124 18.008 114.54 19.48 113.372 20.632ZM108.716 19.24C109.564 19.24 110.236 18.96 110.732 18.4C111.228 17.84 111.476 17.112 111.476 16.216C111.476 15.32 111.228 14.592 110.732 14.032C110.236 13.472 109.564 13.192 108.716 13.192C107.852 13.192 107.172 13.472 106.676 14.032C106.196 14.592 105.956 15.32 105.956 16.216C105.956 17.112 106.196 17.84 106.676 18.4C107.172 18.96 107.852 19.24 108.716 19.24Z" fill="#1B1B28"></path> <path d="M124.837 10.432H128.509V21.208C128.509 23.448 127.765 25.088 126.277 26.128C125.301 26.816 123.925 27.16 122.149 27.16C120.405 27.16 119.013 26.848 117.973 26.224C117.381 25.856 116.893 25.384 116.509 24.808C116.125 24.232 115.925 23.632 115.909 23.008H119.653C119.829 23.984 120.645 24.472 122.101 24.472C123.925 24.472 124.837 23.536 124.837 21.664V20.128C124.549 20.688 124.061 21.144 123.373 21.496C122.701 21.832 121.981 22 121.213 22C119.533 22 118.197 21.456 117.205 20.368C116.213 19.264 115.717 17.84 115.717 16.096C115.717 14.368 116.229 12.944 117.253 11.824C118.277 10.688 119.613 10.12 121.261 10.12C122.061 10.12 122.781 10.304 123.421 10.672C124.077 11.024 124.549 11.496 124.837 12.088V10.432ZM122.221 19.168C123.069 19.168 123.741 18.88 124.237 18.304C124.749 17.728 125.005 17.008 125.005 16.144C125.005 15.28 124.749 14.56 124.237 13.984C123.741 13.408 123.069 13.12 122.221 13.12C121.405 13.12 120.741 13.408 120.229 13.984C119.733 14.544 119.485 15.264 119.485 16.144C119.485 17.024 119.733 17.752 120.229 18.328C120.741 18.888 121.405 19.168 122.221 19.168Z" fill="#1B1B28"></path> <path d="M135.205 22.36C133.541 22.36 132.213 22 131.221 21.28C130.229 20.56 129.733 19.64 129.733 18.52H133.381C133.381 18.92 133.557 19.248 133.909 19.504C134.261 19.76 134.717 19.888 135.277 19.888C135.677 19.888 135.997 19.792 136.237 19.6C136.493 19.408 136.621 19.144 136.621 18.808C136.621 18.28 136.341 17.952 135.781 17.824L132.949 17.104C132.005 16.864 131.285 16.456 130.789 15.88C130.293 15.304 130.045 14.6 130.045 13.768C130.045 12.68 130.493 11.8 131.389 11.128C132.285 10.44 133.485 10.096 134.989 10.096C136.653 10.096 137.925 10.416 138.805 11.056C139.701 11.696 140.149 12.576 140.149 13.696H136.525C136.525 13.296 136.381 12.984 136.093 12.76C135.821 12.536 135.437 12.424 134.941 12.424C134.541 12.424 134.221 12.512 133.981 12.688C133.741 12.864 133.621 13.096 133.621 13.384C133.621 13.896 133.949 14.24 134.605 14.416L137.341 15.16C138.253 15.4 138.965 15.8 139.477 16.36C140.005 16.904 140.269 17.576 140.269 18.376C140.269 19.576 139.813 20.544 138.901 21.28C138.005 22 136.773 22.36 135.205 22.36Z" fill="#1B1B28"></path> <defs> <filter id="filter0_b" x="-12" y="-12" width="52" height="52" filterUnits="userSpaceOnUse" color-interpolation-filters="sRGB"> <feFlood flood-opacity="0" result="BackgroundImageFix"></feFlood> <feGaussianBlur in="BackgroundImage" stdDeviation="6"></feGaussianBlur> <feComposite in2="SourceAlpha" operator="in" result="effect1_backgroundBlur"></feComposite> <feBlend mode="normal" in="SourceGraphic" in2="effect1_backgroundBlur" result="shape"></feBlend> </filter> <radialGradient id="paint0_radial" cx="0" cy="0" r="1" gradientUnits="userSpaceOnUse" gradientTransform="translate(19 -1) rotate(112.479) scale(31.3847 31.721)"> <stop stop-color="#03B8ED"></stop> <stop offset="0.836852" stop-color="#2961F6"></stop> </radialGradient> </defs> </svg> 