<?xml version="1.0" encoding="UTF-8"?> <svg xmlns="http://www.w3.org/2000/svg" width="24" height="25" viewBox="0 0 24 25" fill="none"> <path d="M16.456 7.95522C16.6673 7.75406 16.9485 7.64284 17.2402 7.64505C17.5319 7.64726 17.8114 7.76271 18.0196 7.96706C18.2279 8.1714 18.3486 8.44864 18.3563 8.74029C18.364 9.03193 18.2581 9.31517 18.061 9.53022L12.076 17.0152C11.9731 17.1261 11.8488 17.215 11.7108 17.2768C11.5727 17.3385 11.4236 17.3718 11.2723 17.3746C11.1211 17.3774 10.9709 17.3497 10.8306 17.2931C10.6903 17.2365 10.5629 17.1522 10.456 17.0452L6.48697 13.0762C6.37644 12.9732 6.28779 12.849 6.2263 12.711C6.16481 12.573 6.13175 12.4241 6.12908 12.273C6.12642 12.122 6.1542 11.9719 6.21078 11.8318C6.26737 11.6917 6.35158 11.5645 6.45841 11.4577C6.56524 11.3508 6.69249 11.2666 6.83257 11.21C6.97265 11.1535 7.1227 11.1257 7.27375 11.1283C7.42481 11.131 7.57378 11.1641 7.71178 11.2256C7.84978 11.287 7.97398 11.3757 8.07697 11.4862L11.218 14.6257L16.4275 7.98822C16.4368 7.97668 16.4469 7.96566 16.4575 7.95522H16.456Z" fill="#1B1B28"></path> </svg> 