<svg width="512" height="512" viewBox="0 0 512 512" fill="none" xmlns="http://www.w3.org/2000/svg">
<path d="M256 11C120.69 11 11.0002 120.69 11 256C10.9998 391.309 120.69 501 256 501C391.309 501 501 391.31 501 256C501 120.69 391.309 11 256 11Z" fill="#2961F6"/>
<path d="M106 161H157.343C159.029 248.107 196.88 285.003 226.862 292.611V161H275.207V236.125C304.813 232.892 335.919 198.658 346.412 161H394.757C390.801 180.53 382.918 199.02 371.601 215.318C360.285 231.615 345.777 245.367 328.985 255.715C347.734 265.162 364.294 278.541 377.57 294.966C390.846 311.392 400.536 330.491 406 351H352.783C347.879 333.185 337.9 317.237 324.098 305.158C310.298 293.079 293.289 285.406 275.207 283.102V351H269.397C166.899 351 108.436 279.679 106 161Z" fill="white"/>
</svg>
