<svg width="490" height="490" viewBox="0 0 490 490" fill="none" xmlns="http://www.w3.org/2000/svg">
<path d="M245 0C109.69 -1.32858e-05 0.000249442 109.69 4.29281e-10 245C-0.000249441 380.309 109.69 490 245 490C380.309 490 490 380.31 490 245C490 109.69 380.309 1.32858e-05 245 0Z" fill="#F7F7F7"/>
<path d="M94.9995 150H146.343C148.029 237.107 185.88 274.003 215.862 281.611V150H264.207V225.125C293.813 221.892 324.919 187.658 335.412 150H383.757C379.801 169.53 371.918 188.02 360.601 204.318C349.285 220.615 334.777 234.367 317.985 244.715C336.734 254.162 353.294 267.541 366.57 283.966C379.846 300.392 389.536 319.491 395 340H341.783C336.879 322.185 326.9 306.237 313.098 294.158C299.298 282.079 282.289 274.406 264.207 272.102V340H258.397C155.899 340 97.4356 268.679 94.9995 150Z" fill="#1B1B28"/>
</svg>
